<?xml version="1.0" encoding="UTF-8"?>
<svg id="Layer_1" data-name="Layer 1" xmlns="http://www.w3.org/2000/svg" viewBox="0 0 186.41 188.69">
  <path d="m171.39,132.26c-.04.13-.08.26-.12.39-3.65.1-6.64,1.72-8.99,4.32-1.72,1.89-3.16,4.07-4.51,6.25-2.13,3.43-4.06,6.99-6.13,10.46-.66,1.1-1.49,2.1-2.29,3.22,3.66,1.75,6.6,4.16,8.86,7.49,1.69-1.14,3.22-2.27,4.83-3.26,8.32-5.15,15-11.84,20.21-20.17,2.77-4.43,3-8.38-.12-12.53-.09-.12-.17-.24-.25-.36-4.09-6.11-9.02-11.52-14.14-16.75-6.69-6.84-13.47-13.59-21.59-18.78-1.38-.88-2.82-1.67-4.37-2.58-.09.61-.15.94-.19,1.27-.66,5.66-1.3,11.33-1.99,16.98-.41,3.4-.36,3.25,2.58,5.07,6.79,4.22,13.52,8.52,20.19,12.93,2.79,1.84,5.35,4.03,8.02,6.07Z" style="fill: #60a5fa; stroke-width: 0px;"/>
  <path d="m35.7,157.12c-2.73-4.79-5.41-9.43-8.02-14.1-3.02-5.38-6.82-9.72-13.8-10.49,2.17-1.69,4.1-3.24,6.07-4.72,7.89-5.92,16.1-11.35,24.96-15.74.9-.45.75-.94.62-1.62-.89-4.69-1.81-9.38-2.64-14.09-.35-1.99-.49-4.01-.77-6.43-2.98,2.03-5.78,3.72-8.33,5.72-8.51,6.68-16.08,14.36-23.3,22.39-3.52,3.92-6.9,7.95-9.43,12.63-1.45,2.68-1.42,5.24.04,7.92,4.24,7.79,9.78,14.45,17.03,19.59,3.01,2.13,6.12,4.12,9.29,6.24,2.11-3.49,5.09-5.71,8.26-7.3Z" style="fill: #60a5fa; stroke-width: 0px;"/>
  <path d="m92.89,68.81v-.02c-4.98,0-9.96-.03-14.94.01-2,.02-4.01.03-5.98.29-5.27.7-8.67,3.86-9.32,9.15-.39,3.16-.31,6.44.02,9.62.48,4.63,3.3,7.8,7.55,9.42,2.57.98,5.35,1.4,8.06,1.99,3.92.85,6.85-.63,8.93-3.99.9-1.45,1.8-2.91,2.81-4.28,1.73-2.34,4.1-2.27,5.74.14,1.1,1.61,2.11,3.29,3.23,4.88,1.95,2.78,4.64,3.91,8,3.33,1.82-.31,3.65-.6,5.45-1.02,6.21-1.44,9.91-4.81,10.49-10.11.37-3.32.35-6.74.05-10.07-.39-4.22-2.93-7.08-6.92-8.42-1.68-.57-3.52-.84-5.3-.88-5.95-.11-11.91-.04-17.87-.04Z" style="fill: #60a5fa; stroke-width: 0px;"/>
  <path d="m145.65,161.9c-.25.02-.7-.01-1.12.08-3.47.78-6.97,1.46-10.39,2.43-1.25.35-2.52,1.18-3.4,2.14-2.08,2.25-3.97,4.68-5.82,7.13-.37.49-.52,1.73-.21,2.01.48.45,1.47.56,2.2.47.55-.07,1.09-.62,1.54-1.05,1.27-1.21,2.46-2.51,3.76-3.68.42-.37,1.11-.44,1.68-.64.09.72.44,1.52.22,2.12-.26.73-.96,1.33-1.54,1.9-1.51,1.46-3.1,2.83-4.58,4.32-.6.6-1.15,1.35-1.47,2.13-.56,1.37.46,2.82,1.92,2.62.95-.13,1.95-.63,2.72-1.23,1.66-1.28,3.14-2.78,4.8-4.06.46-.35,1.25-.27,1.89-.39-.15.65-.17,1.36-.48,1.93-.29.53-.88.9-1.33,1.35-.85.87-1.72,1.73-2.54,2.63-.76.84-.7,1.79-.1,2.68.63.93,1.59.95,2.49.58.8-.33,1.54-.85,2.22-1.39,1.54-1.2,3-2.5,4.56-3.66.44-.33,1.15-.31,1.73-.46-.22.55-.31,1.22-.67,1.64-.71.8-1.62,1.41-2.35,2.19-.58.62-1.73,1.18-.96,2.27.83,1.17,1.88.61,2.85.06.17-.1.35-.18.5-.3,3.87-3.03,7.33-6.45,9.69-10.82,1.3-2.4,2.08-4.94,1.18-7.73-1.33-4.11-5.19-7.32-8.98-7.28Z" style="fill: #60a5fa; stroke-width: 0px;"/>
  <path d="m41,161.96c-6.5-.13-11.66,5.94-10.32,10.89.67,2.48,1.95,4.88,3.38,7.03,2.22,3.34,4.99,6.26,8.48,8.36.76.46,1.7.79,2.38-.11.71-.94.01-1.65-.63-2.26-.95-.91-1.98-1.74-2.89-2.69-.25-.26-.18-.83-.26-1.26.43,0,.92-.11,1.29.05.43.18.75.61,1.14.91,1.76,1.39,3.48,2.83,5.31,4.12,1,.71,2.23.93,3.16-.19.89-1.07.41-2.14-.38-3.02-1.04-1.16-2.18-2.24-3.27-3.35-.62-.63-1.47-1.38-.67-2.23.87-.92,1.51.13,2.17.65,2.01,1.61,4.01,3.25,6.08,4.77.87.64,1.86.49,2.64-.34.79-.85.71-1.77.14-2.68-.28-.45-.65-.86-1.03-1.23-1.93-1.86-3.9-3.69-5.82-5.56-.87-.85-1.18-2.13-.4-2.9.89-.89,1.57.33,2.21.94.21.2.39.44.6.64,1.25,1.15,2.46,2.37,3.79,3.42.87.68,1.96.72,2.77-.21.79-.92,0-1.63-.52-2.3-1.48-1.87-2.91-3.8-4.53-5.56-1.07-1.17-2.26-2.56-3.66-3.01-4.07-1.3-8.28-2.17-11.13-2.88Z" style="fill: #60a5fa; stroke-width: 0px;"/>
  <path d="m48,30.78c.07,1.1.17,2.01.19,2.93.15,4.92.47,9.84.35,14.74-.09,3.59-1.04,7.16-1.11,10.75-.2,10.15-.16,20.3-.15,30.44,0,2.43.09,4.89.42,7.29,2.14,15.23,15.15,22.06,29.86,20.5v-4.36c-2.58,0-5.06.16-7.52-.03-10.7-.79-18.05-8.46-18.19-19.19-.15-10.88-.1-21.76-.02-32.64.02-2.91.35-5.84.81-8.72,1.17-7.37.35-14.67-.35-22.21-1.4.16-2.73.32-4.28.5Z" style="fill: #60a5fa; stroke-width: 0px;"/>
  <path d="m117.08,67.19c.5-1.48,1.03-2.59,1.24-3.75,1-5.53-1.03-10.22-4.54-14.27-8.05-9.27-21.25-12.1-32.43-6.97-6.65,3.06-11.61,7.8-13.78,15.04-.98,3.27-.64,6.4,1.04,9.79.89-4.36,2.25-8.17,4.79-11.47,2.56-3.32,5.73-5.84,9.62-7.41,3.87-1.56,7.9-2.19,12.04-1.86,9.49.76,19.45,6.78,22.02,20.89Z" style="fill: #60a5fa; stroke-width: 0px;"/>
  <path d="m140.22,60.47c.98-7.64-3.16-15.3-9.94-18.91-5.23-2.79-10.78-3.52-16.58-2.89-.98.11-1.94.38-3.35.67,6.79,4.45,11.17,10.21,13.26,17.66,5.76.06,11.33.7,16.61,3.48Z" style="fill: #60a5fa; stroke-width: 0px;"/>
  <path d="m124.5,67.22c.38.13.69.27,1.01.36,6.49,1.67,12.79,3.88,18.56,7.33,9.2,5.51,16.71,12.58,20.78,22.79.16.39.38.82.7,1.08,1.28,1.03,2.6,2,3.97,3.04.04-.21.1-.35.08-.46-.14-.77-.25-1.54-.44-2.29-1.9-7.48-6.24-13.47-11.64-18.78-7.58-7.46-16.72-12.2-26.84-15.17-1.99-.58-4.03-.98-6.17-1.5v3.61Z" style="fill: #60a5fa; stroke-width: 0px;"/>
  <path d="m127.72,107.75c-.09.45-.16.78-.23,1.11-1.39,6.12-2.77,12.24-4.2,18.35-.12.51-.52,1.01-.9,1.39-1.89,1.88-2.43,4.32-2.87,6.8-.03.17.06.38.13.56.71,1.73,6.17,4.07,7.93,3.41,1.6-.6,3.81-6.1,3.2-7.68-.26-.66-.38-1.53-.19-2.19,3.31-11.6,4.5-23.52,5.5-35.47.04-.51.19-1.15-.74-1.04-.1.01-.25-.43-.48-.84-.55,3.73-1.08,7.31-1.63,11.01-1.02-.18-1.92-.34-3.02-.53.2-1.94.4-3.81.59-5.68.15-1.44.21-2.86-1.13-4.06-.55,3.49-1.04,6.86-1.62,10.21-.2,1.17.26,1.57,1.33,1.69,1.19.13,2.38.36,3.7.57-1.03,8.33-2.42,16.43-4.87,24.34-1.03-.4-1.88-.73-2.91-1.12,1.65-6.8,3.39-13.61,4.2-20.69-.72-.06-1.24-.1-1.78-.15Z" style="fill: #60a5fa; stroke-width: 0px;"/>
  <path d="m100.73,121.87c2.48.43,2.71.34,3.28-1.9.3-1.17.57-2.42.48-3.6-.38-4.85-2.68-8.54-7.24-10.48-4.27-1.81-8.37-1.21-11.9,1.8-3.72,3.18-5.04,7.29-3.88,12.1.54,2.23,1.01,2.5,3.46,2.03-.09-2.55-.31-5.18,1.37-7.4,1.68-2.21,3.97-3.25,6.74-3.16,5.13.16,7.34,3.19,7.7,10.6Z" style="fill: #60a5fa; stroke-width: 0px;"/>
  <path d="m56.77,58.01c1.33-.25,2.47-.54,3.62-.64,1.17-.1,1.78-.58,2.15-1.74,2.07-6.38,5.9-11.46,11.45-15.23.39-.26.75-.55,1.35-1-6.17-1.41-11.82-.9-17.15,2.1-.31.17-.52.76-.54,1.17-.21,3.79-.34,7.58-.54,11.37-.07,1.29-.22,2.58-.35,3.97Z" style="fill: #60a5fa; stroke-width: 0px;"/>
  <path d="m117.62,156.59c-.11-.07-.21-.17-.34-.23-.83-.37-1.65-.9-2.51-1-.25-.03-.61,1.19-.98,1.8-2.28,3.71-5.31,6.59-9.37,8.3-5.95,2.5-12.1,2.88-18.37,1.62-5.98-1.2-10.68-4.37-14.05-9.47-.24-.36-.51-.74-.6-1.15-.34-1.46-.64-1.64-1.95-.94-.63.34-1.21.78-1.8,1.17,9.35,18.58,40.78,18.68,49.96-.1Z" style="fill: #60a5fa; stroke-width: 0px;"/>
  <path d="m42.64,70.55c-.16-.12-.32-.23-.48-.35-2.56,1.66-5.19,3.23-7.67,5.01-6.84,4.9-12.4,10.94-15.97,18.65-1.15,2.49-1.9,5.09-2.14,7.97,1.33-1,2.51-1.84,3.64-2.76.43-.34.88-.79,1.06-1.29,1.43-4.05,3.74-7.59,6.4-10.9,3.93-4.89,8.83-8.62,14.12-11.91.41-.26.94-.69.99-1.1.14-1.09.05-2.21.05-3.31Z" style="fill: #60a5fa; stroke-width: 0px;"/>
  <path d="m52.14,115.83c.05.44.06.88.15,1.3.86,3.94,1.73,7.89,2.61,11.82.23,1.03.63,2.02-.17,3.02-.2.25-.23.78-.11,1.1.62,1.68,1.25,3.37,2.01,5,.58,1.25,1.67,1.78,3.03,1.33,1.57-.52,3.14-1.04,4.64-1.73,1.59-.74,2.11-2.12,1.54-3.77-.48-1.38-1.04-2.73-1.62-4.07-.16-.38-.52-.68-.77-1.03-.43-.6-1.02-1.15-1.24-1.82-.53-1.56-1.05-3.16-1.26-4.79-.2-1.58-1.17-2.12-2.7-2.71.71,3.21,1.37,6.17,2.03,9.14-.99.37-1.88.7-2.86,1.06-.55-1.92-1.11-3.73-1.58-5.56-.42-1.65-.82-3.31-1.06-4.99-.23-1.58-.59-2.94-2.65-3.29Z" style="fill: #60a5fa; stroke-width: 0px;"/>
  <path d="m119.59,156.78c1.7.26,3.14-.5,3.96-2.21.61-1.27,1.13-2.59,1.66-3.9.68-1.7.37-3-1.21-3.89-1.56-.88-3.25-1.54-4.93-2.17-1.5-.57-2.76.01-3.46,1.37-.91,1.77-1.72,3.6-2.41,5.47-.47,1.25-.11,2.38,1.19,3.07,1.85-3.62,2.76-4.25,4.77-3.34,1.81.83,1.9,1.93.43,5.61Z" style="fill: #60a5fa; stroke-width: 0px;"/>
  <path d="m66.07,156.98c-1.6-3.68-1.63-4.73.09-5.62,3.15-1.63,3.96.95,4.89,3.16,1.31-.97,1.6-2.11,1.13-3.34-.65-1.73-1.39-3.43-2.24-5.08-.63-1.22-1.8-1.99-3.15-1.55-1.88.61-3.73,1.4-5.45,2.36-1.26.7-1.67,1.99-1.08,3.43.61,1.48,1.21,2.98,1.87,4.44.73,1.62,2.12,2.14,3.94,2.2Z" style="fill: #60a5fa; stroke-width: 0px;"/>
  <path d="m54.83,146c-.19-1.07-.05-2.22-.52-2.58-1.63-1.23-2.36-2.74-2.47-4.73-.03-.5-.62-1.08-1.1-1.39-.17-.11-1.01.41-1.15.78-.36.96-.82,2.05-.67,3.01.46,3.01,2.82,4.07,5.92,4.9Z" style="fill: #60a5fa; stroke-width: 0px;"/>
  <path d="m131.09,146.07c1.09-.49,2.22-.84,3.18-1.45,2.55-1.63,3.23-4.59,1.6-6.65-.3-.38-.82-.6-1.23-.9-.34.5-.72.99-1,1.52-.12.23.04.61-.06.86-.44,1.09-.66,2.47-1.46,3.15-1.16.99-1.36,1.96-1.02,3.46Z" style="fill: #60a5fa; stroke-width: 0px;"/>
  <path d="m140.95,135.79c1.41,0,2.59-1.23,2.55-2.66-.03-1.42-1.23-2.55-2.68-2.53-1.31.02-2.5,1.23-2.52,2.56-.02,1.31,1.32,2.64,2.65,2.63Z" style="fill: #60a5fa; stroke-width: 0px;"/>
  <path d="m47.98,133.3c.02-1.49-1.1-2.71-2.47-2.71-1.47,0-2.58,1.11-2.6,2.59-.01,1.39,1.18,2.62,2.57,2.65,1.3.03,2.48-1.16,2.49-2.53Z" style="fill: #60a5fa; stroke-width: 0px;"/>
  <path d="m61.31,63.73c-1.04.35-1.87.6-2.68.91-2.39.9-2.44,1.03-1.88,3.8,1.57-.41,3.13-.81,4.75-1.23-.07-1.17-.13-2.22-.2-3.48Z" style="fill: #60a5fa; stroke-width: 0px;"/>
  <path d="m92.69,123.26c.59-.04,1.35.03,2.04-.16.46-.13.83-.61,1.24-.94-.39-.42-.75-1.14-1.19-1.19-1.39-.16-2.82-.15-4.21-.03-.41.04-1.1.7-1.07,1.02.04.43.59.99,1.04,1.15.61.22,1.34.11,2.16.15Z" style="fill: #60a5fa; stroke-width: 0px;"/>
  <path d="m92.58,117.71s0,0,0,0c.63,0,1.31.13,1.89-.04.47-.14.83-.66,1.23-1.01-.33-.38-.64-1.06-.99-1.09-1.34-.11-2.7-.09-4.03.07-.32.04-.78.79-.76,1.18.02.32.64.73,1.06.86.49.15,1.06.03,1.6.03Z" style="fill: #60a5fa; stroke-width: 0px;"/>
  <path d="m172.39,132.26c-2.67-2.03-5.23-4.22-8.02-6.07-6.67-4.41-13.4-8.71-20.19-12.93-2.94-1.83-3-1.68-2.58-5.07.69-5.66,1.33-11.32,1.99-16.98.04-.33.1-.65.19-1.27,1.56.91,3,1.7,4.37,2.58,8.12,5.2,14.9,11.94,21.59,18.78,5.12,5.24,10.06,10.64,14.14,16.75.08.12.16.25.25.36,3.11,4.15,2.89,8.1.12,12.53-5.21,8.33-11.9,15.02-20.21,20.17-1.61,1-3.15,2.12-4.83,3.26-2.26-3.33-5.2-5.74-8.86-7.49.8-1.12,1.63-2.12,2.29-3.22,2.07-3.47,4-7.03,6.13-10.46,1.35-2.18,2.8-4.35,4.51-6.25,2.35-2.6,5.34-4.22,8.99-4.32.04-.13.08-.26.12-.39Z" style="fill: #60a5fa; stroke-width: 0px;"/>
  <path d="m36.7,157.12c-3.17,1.58-6.15,3.81-8.26,7.3-3.17-2.12-6.29-4.11-9.29-6.24-7.26-5.15-12.79-11.8-17.03-19.59-1.46-2.68-1.49-5.23-.04-7.92,2.52-4.68,5.9-8.71,9.43-12.63,7.22-8.03,14.79-15.71,23.3-22.39,2.55-2.01,5.36-3.69,8.33-5.72.28,2.42.42,4.44.77,6.43.82,4.71,1.74,9.4,2.64,14.09.13.69.28,1.17-.62,1.62-8.86,4.38-17.07,9.82-24.96,15.74-1.97,1.48-3.9,3.03-6.07,4.72,6.98.78,10.79,5.11,13.8,10.49,2.62,4.67,5.29,9.31,8.02,14.1Z" style="fill: #60a5fa; stroke-width: 0px;"/>
  <path d="m93.89,68.81c5.96,0,11.91-.07,17.87.04,1.78.03,3.62.31,5.3.88,3.99,1.35,6.53,4.2,6.92,8.42.31,3.33.32,6.75-.05,10.07-.59,5.31-4.28,8.68-10.49,10.11-1.8.42-3.63.7-5.45,1.02-3.36.58-6.05-.55-8-3.33-1.12-1.6-2.12-3.27-3.23-4.88-1.65-2.4-4.02-2.48-5.74-.14-1.01,1.37-1.91,2.83-2.81,4.28-2.08,3.36-5,4.84-8.93,3.99-2.71-.58-5.49-1.01-8.06-1.99-4.26-1.62-7.07-4.79-7.55-9.42-.33-3.18-.41-6.46-.02-9.62.65-5.29,4.05-8.45,9.32-9.15,1.97-.26,3.99-.28,5.98-.29,4.98-.04,9.96-.01,14.94-.01v.02Zm.06,4.1h0c-3.27,0-6.54-.04-9.81,0-3.61.05-7.23,0-10.82.29-3.36.27-5.7,2.88-5.87,6.24-.11,2.24-.08,4.49-.02,6.73.1,3.61,2.04,6.31,5.48,7.49,1.88.65,3.85,1.03,5.78,1.57,2.75.77,4.73-.19,6.23-2.53,1.39-2.18,2.77-4.37,4.32-6.43,2.86-3.79,6.09-3.8,8.96-.06,1.87,2.44,3.57,5,5.36,7.5,1,1.39,2.35,2.09,4.05,1.72,2.47-.55,4.98-1.02,7.35-1.87,3.66-1.32,5.24-3.86,5.27-7.74.02-2.15.07-4.3,0-6.44-.07-2.46-1.36-4.34-3.49-5.36-1.4-.67-3.07-1.02-4.64-1.05-6.05-.12-12.11-.05-18.16-.05Z" style="fill: #60a5fa; stroke-width: 0px;"/>
  <path d="m146.65,161.9c3.79-.05,7.65,3.17,8.98,7.28.9,2.78.12,5.32-1.18,7.73-2.36,4.37-5.82,7.79-9.69,10.82-.15.12-.33.21-.5.3-.97.55-2.02,1.12-2.85-.06-.77-1.09.38-1.65.96-2.27.73-.78,1.65-1.39,2.35-2.19.37-.42.46-1.08.67-1.64-.58.14-1.28.13-1.73.46-1.56,1.16-3.02,2.46-4.56,3.66-.69.54-1.43,1.05-2.22,1.39-.89.38-1.86.35-2.49-.58-.6-.89-.66-1.84.1-2.68.82-.9,1.68-1.76,2.54-2.63.44-.45,1.04-.82,1.33-1.35.31-.56.33-1.28.48-1.93-.64.12-1.44.03-1.89.39-1.65,1.29-3.14,2.79-4.8,4.06-.77.6-1.77,1.1-2.72,1.23-1.46.2-2.48-1.24-1.92-2.62.32-.78.87-1.53,1.47-2.13,1.48-1.48,3.07-2.86,4.58-4.32.59-.57,1.28-1.17,1.54-1.9.22-.6-.13-1.41-.22-2.12-.57.21-1.26.27-1.68.64-1.31,1.17-2.49,2.47-3.76,3.68-.45.43-.99.99-1.54,1.05-.73.09-1.72-.02-2.2-.47-.31-.29-.16-1.52.21-2.01,1.85-2.45,3.75-4.87,5.82-7.13.88-.96,2.15-1.79,3.4-2.14,3.42-.96,6.92-1.65,10.39-2.43.42-.09.87-.07,1.12-.08Z" style="fill: #60a5fa; stroke-width: 0px;"/>
  <path d="m42,161.96c2.85.71,7.05,1.58,11.13,2.88,1.41.45,2.6,1.84,3.66,3.01,1.61,1.76,3.04,3.69,4.53,5.56.53.67,1.32,1.37.52,2.3-.8.93-1.89.9-2.77.21-1.34-1.05-2.54-2.26-3.79-3.42-.22-.2-.39-.44-.6-.64-.63-.61-1.31-1.83-2.21-.94-.78.77-.47,2.05.4,2.9,1.92,1.87,3.89,3.7,5.82,5.56.38.37.75.78,1.03,1.23.57.91.65,1.83-.14,2.68-.78.83-1.77.98-2.64.34-2.08-1.52-4.07-3.16-6.08-4.77-.65-.52-1.3-1.57-2.17-.65-.8.84.05,1.59.67,2.23,1.09,1.12,2.23,2.19,3.27,3.35.8.88,1.28,1.95.38,3.02-.93,1.11-2.15.9-3.16.19-1.83-1.29-3.55-2.74-5.31-4.12-.38-.3-.71-.73-1.14-.91-.37-.16-.86-.04-1.29-.05.08.43,0,1,.26,1.26.91.95,1.94,1.78,2.89,2.69.65.62,1.34,1.32.63,2.26-.68.9-1.61.57-2.38.11-3.49-2.1-6.26-5.02-8.48-8.36-1.43-2.15-2.71-4.56-3.38-7.03-1.34-4.95,3.82-11.01,10.32-10.89Z" style="fill: #60a5fa; stroke-width: 0px;"/>
  <path d="m49,30.78c1.56-.18,2.89-.34,4.28-.5.71,7.54,1.53,14.85.35,22.21-.46,2.88-.79,5.81-.81,8.72-.09,10.88-.13,21.76.02,32.64.14,10.72,7.49,18.4,18.19,19.19,2.46.18,4.95.03,7.52.03v4.36c-14.71,1.56-27.72-5.27-29.86-20.5-.34-2.4-.42-4.86-.42-7.29,0-10.15-.04-20.3.15-30.44.07-3.59,1.02-7.16,1.11-10.75.12-4.91-.2-9.83-.35-14.74-.03-.92-.12-1.83-.19-2.93Z" style="fill: #60a5fa; stroke-width: 0px;"/>
  <path d="m118.08,67.19c-2.57-14.11-12.53-20.13-22.02-20.89-4.14-.33-8.17.3-12.04,1.86-3.9,1.57-7.07,4.09-9.62,7.41-2.54,3.3-3.9,7.11-4.79,11.47-1.68-3.39-2.02-6.52-1.04-9.79,2.16-7.24,7.13-11.98,13.78-15.04,11.18-5.14,24.38-2.31,32.43,6.97,3.51,4.04,5.54,8.73,4.54,14.27-.21,1.16-.74,2.27-1.24,3.75Z" style="fill: #60a5fa; stroke-width: 0px;"/>
  <path d="m141.22,60.47c-5.27-2.78-10.85-3.42-16.61-3.48-2.09-7.45-6.47-13.21-13.26-17.66,1.4-.28,2.37-.56,3.35-.67,5.8-.63,11.35.11,16.58,2.89,6.78,3.61,10.92,11.27,9.94,18.91Z" style="fill: #60a5fa; stroke-width: 0px;"/>
  <path d="m125.5,67.22v-3.61c2.15.52,4.19.92,6.17,1.5,10.12,2.97,19.26,7.71,26.84,15.17,5.4,5.31,9.74,11.29,11.64,18.78.19.75.31,1.53.44,2.29.02.12-.04.25-.08.46-1.36-1.04-2.69-2.01-3.97-3.04-.32-.26-.54-.69-.7-1.08-4.07-10.21-11.58-17.28-20.78-22.79-5.77-3.46-12.07-5.66-18.56-7.33-.32-.08-.63-.22-1.01-.36Z" style="fill: #60a5fa; stroke-width: 0px;"/>
  <path d="m128.72,107.75c.54.04,1.06.09,1.78.15-.81,7.08-2.55,13.88-4.2,20.69,1.03.4,1.88.73,2.91,1.12,2.45-7.91,3.84-16.01,4.87-24.34-1.32-.21-2.5-.44-3.7-.57-1.07-.12-1.53-.52-1.33-1.69.58-3.35,1.07-6.72,1.62-10.21,1.34,1.19,1.28,2.62,1.13,4.06-.19,1.87-.39,3.75-.59,5.68,1.11.19,2,.35,3.02.53.55-3.69,1.07-7.27,1.63-11.01.23.42.38.85.48.84.93-.1.78.54.74,1.04-.99,11.95-2.19,23.87-5.5,35.47-.19.67-.07,1.53.19,2.19.61,1.58-1.6,7.08-3.2,7.68-1.76.66-7.22-1.69-7.93-3.41-.07-.18-.17-.39-.13-.56.44-2.48.98-4.92,2.87-6.8.39-.39.78-.88.9-1.39,1.43-6.11,2.81-12.23,4.2-18.35.07-.33.14-.66.23-1.11Zm-5.59,27.25c1.64.64,3.11,1.22,4.66,1.82.55-1.19,1.05-2.23,1.5-3.29.09-.22.03-.72-.09-.78-1.41-.61-2.83-1.26-4.31-1.61-.22-.05-.82,1.41-1.19,2.2-.22.47-.34.99-.57,1.65Z" style="fill: #60a5fa; stroke-width: 0px;"/>
  <path d="m101.73,121.87c-.36-7.41-2.57-10.45-7.7-10.6-2.76-.08-5.06.96-6.74,3.16-1.68,2.21-1.46,4.85-1.37,7.4-2.45.48-2.93.2-3.46-2.03-1.16-4.81.16-8.92,3.88-12.1,3.53-3.01,7.63-3.62,11.9-1.8,4.56,1.94,6.85,5.63,7.24,10.48.09,1.18-.18,2.43-.48,3.6-.57,2.24-.8,2.33-3.28,1.9Z" style="fill: #60a5fa; stroke-width: 0px;"/>
  <path d="m57.77,58.01c.12-1.38.28-2.67.35-3.97.19-3.79.33-7.58.54-11.37.02-.41.23-1,.54-1.17,5.33-3,10.98-3.51,17.15-2.1-.6.45-.97.74-1.35,1-5.55,3.77-9.38,8.86-11.45,15.23-.37,1.15-.98,1.63-2.15,1.74-1.15.1-2.29.4-3.62.64Z" style="fill: #60a5fa; stroke-width: 0px;"/>
  <path d="m118.62,156.59c-9.19,18.79-40.61,18.69-49.96.1.59-.39,1.17-.82,1.8-1.17,1.3-.71,1.6-.53,1.95.94.1.41.37.79.6,1.15,3.37,5.1,8.06,8.27,14.05,9.47,6.27,1.26,12.42.88,18.37-1.62,4.06-1.71,7.09-4.59,9.37-8.3.37-.61.73-1.82.98-1.8.86.1,1.68.63,2.51,1,.12.06.23.15.34.23Z" style="fill: #60a5fa; stroke-width: 0px;"/>
  <path d="m43.64,70.55c0,1.11.09,2.23-.05,3.31-.05.41-.58.84-.99,1.1-5.28,3.29-10.19,7.02-14.12,11.91-2.66,3.32-4.97,6.85-6.4,10.9-.17.5-.63.94-1.06,1.29-1.13.91-2.31,1.76-3.64,2.76.24-2.88.99-5.49,2.14-7.97,3.57-7.71,9.12-13.75,15.97-18.65,2.48-1.78,5.11-3.34,7.67-5.01.16.12.32.23.48.35Z" style="fill: #60a5fa; stroke-width: 0px;"/>
  <path d="m53.14,115.83c2.05.35,2.42,1.71,2.65,3.29.24,1.68.65,3.34,1.06,4.99.47,1.84,1.03,3.65,1.58,5.56.98-.36,1.86-.69,2.86-1.06-.66-2.97-1.32-5.93-2.03-9.14,1.53.59,2.49,1.13,2.7,2.71.21,1.63.73,3.23,1.26,4.79.23.67.81,1.22,1.24,1.82.25.35.6.65.77,1.03.58,1.34,1.14,2.69,1.62,4.07.57,1.65.06,3.03-1.54,3.77-1.49.69-3.07,1.21-4.64,1.73-1.37.46-2.45-.08-3.03-1.33-.76-1.62-1.39-3.31-2.01-5-.12-.32-.09-.85.11-1.1.8-1,.4-1.99.17-3.02-.88-3.94-1.75-7.88-2.61-11.82-.09-.42-.1-.86-.15-1.3Zm11.34,19.08c-.58-1.46-.87-2.65-1.53-3.56-.22-.3-1.5-.04-2.16.26-.91.41-2.3,1.02-2.38,1.67-.11.96.59,2.19,1.31,2.96.31.33,1.56-.12,2.34-.35.82-.24,1.58-.64,2.42-.99Z" style="fill: #60a5fa; stroke-width: 0px;"/>
  <path d="m120.59,156.78c1.46-3.68,1.38-4.78-.43-5.61-2-.91-2.92-.28-4.77,3.34-1.3-.68-1.66-1.81-1.19-3.07.69-1.87,1.5-3.7,2.41-5.47.7-1.36,1.97-1.94,3.46-1.37,1.68.63,3.37,1.29,4.93,2.17,1.58.89,1.88,2.19,1.21,3.89-.52,1.31-1.05,2.63-1.66,3.9-.82,1.71-2.26,2.47-3.96,2.21Z" style="fill: #60a5fa; stroke-width: 0px;"/>
  <path d="m67.07,156.98c-1.83-.06-3.21-.58-3.94-2.2-.66-1.46-1.26-2.95-1.87-4.44-.6-1.44-.18-2.73,1.08-3.43,1.73-.96,3.57-1.75,5.45-2.36,1.36-.44,2.53.32,3.15,1.55.84,1.64,1.58,3.35,2.24,5.08.47,1.23.18,2.37-1.13,3.34-.93-2.21-1.74-4.79-4.89-3.16-1.72.89-1.69,1.94-.09,5.62Z" style="fill: #60a5fa; stroke-width: 0px;"/>
  <path d="m55.83,146c-3.1-.83-5.46-1.89-5.92-4.9-.14-.95.31-2.05.67-3.01.14-.38.99-.89,1.15-.78.48.31,1.07.89,1.1,1.39.11,1.99.83,3.5,2.47,4.73.47.35.33,1.51.52,2.58Z" style="fill: #60a5fa; stroke-width: 0px;"/>
  <path d="m132.09,146.07c-.34-1.5-.14-2.47,1.02-3.46.8-.68,1.02-2.07,1.46-3.15.1-.26-.06-.63.06-.86.28-.53.66-1.02,1-1.52.42.29.93.51,1.23.9,1.63,2.06.95,5.02-1.6,6.65-.96.61-2.09.96-3.18,1.45Z" style="fill: #60a5fa; stroke-width: 0px;"/>
  <path d="m141.95,135.79c-1.33,0-2.67-1.32-2.65-2.63.02-1.34,1.21-2.55,2.52-2.56,1.46-.02,2.65,1.11,2.68,2.53.03,1.43-1.14,2.66-2.55,2.66Z" style="fill: #60a5fa; stroke-width: 0px;"/>
  <path d="m48.98,133.3c-.02,1.37-1.19,2.56-2.49,2.53-1.39-.03-2.59-1.27-2.57-2.65.01-1.48,1.13-2.59,2.6-2.59,1.37,0,2.49,1.23,2.47,2.71Z" style="fill: #60a5fa; stroke-width: 0px;"/>
  <path d="m62.31,63.73c.07,1.26.13,2.31.2,3.48-1.62.42-3.19.82-4.75,1.23-.57-2.78-.51-2.9,1.88-3.8.81-.31,1.64-.56,2.68-.91Z" style="fill: #60a5fa; stroke-width: 0px;"/>
  <path d="m93.69,123.26c-.82-.04-1.55.07-2.16-.15-.45-.16-1-.73-1.04-1.15-.03-.32.66-.98,1.07-1.02,1.4-.12,2.82-.13,4.21.03.44.05.8.78,1.19,1.19-.41.33-.78.81-1.24.94-.69.19-1.44.13-2.04.16Z" style="fill: #60a5fa; stroke-width: 0px;"/>
  <path d="m93.58,117.71c-.54,0-1.11.11-1.6-.03-.43-.13-1.04-.54-1.06-.86-.02-.39.44-1.14.76-1.18,1.33-.15,2.7-.18,4.03-.07.36.03.66.71.99,1.09-.41.35-.76.86-1.23,1.01-.58.18-1.26.04-1.89.04,0,0,0,0,0,0Z" style="fill: #60a5fa; stroke-width: 0px;"/>
  <path d="m93.95,72.91c6.05,0,12.11-.07,18.16.05,1.56.03,3.24.38,4.64,1.05,2.13,1.02,3.42,2.9,3.49,5.36.06,2.15,0,4.3,0,6.44-.03,3.88-1.61,6.42-5.27,7.74-2.37.86-4.88,1.33-7.35,1.87-1.7.38-3.06-.32-4.05-1.72-1.79-2.5-3.49-5.06-5.36-7.5-2.87-3.74-6.1-3.73-8.96.06-1.55,2.06-2.93,4.25-4.32,6.43-1.49,2.34-3.48,3.31-6.23,2.53-1.92-.54-3.89-.92-5.78-1.57-3.44-1.18-5.38-3.88-5.48-7.49-.06-2.24-.09-4.49.02-6.73.17-3.36,2.5-5.97,5.87-6.24,3.59-.29,7.21-.24,10.82-.29,3.27-.04,6.54,0,9.81,0h0Zm-20.39,16.64c4.6-4.09,9.17-8.16,13.74-12.23-4.6-.32-8.98-.37-13.36-.29-1.45.02-2.32,1.1-2.38,2.64-.07,1.9,0,3.81-.12,5.7-.12,1.8.67,3.06,2.11,4.18Zm31.47-.1c1.18-1.05,2.13-1.87,3.07-2.73,2.37-2.18,4.77-4.33,7.09-6.56,1-.96.86-1.94-.18-2.72-.92-.69-4.93-.87-5.79-.12-2.34,2.06-4.63,4.19-6.88,6.35-.27.26-.39,1.05-.2,1.37.86,1.46,1.85,2.84,2.9,4.41Z" style="fill: #60a5fa; stroke-width: 0px;"/>
  <path d="m123.13,135c.22-.66.34-1.18.57-1.65.37-.79.97-2.25,1.19-2.2,1.48.35,2.9,1,4.31,1.61.13.05.18.56.09.78-.44,1.07-.95,2.11-1.5,3.29-1.55-.61-3.02-1.18-4.66-1.82Z" style="fill: #60a5fa; stroke-width: 0px;"/>
  <path d="m64.47,134.92c-.84.35-1.61.75-2.42.99-.78.23-2.03.68-2.34.35-.72-.78-1.42-2.01-1.31-2.96.07-.65,1.47-1.27,2.38-1.67.66-.3,1.94-.56,2.16-.26.67.91.95,2.1,1.53,3.56Z" style="fill: #60a5fa; stroke-width: 0px;"/>
  <path d="m73.56,89.55c-1.44-1.13-2.22-2.38-2.11-4.18.12-1.89.05-3.8.12-5.7.06-1.53.93-2.61,2.38-2.64,4.38-.07,8.76-.03,13.36.29-4.57,4.07-9.15,8.14-13.74,12.23Z" style="fill: #60a5fa; stroke-width: 0px;"/>
  <path d="m105.03,89.45c-1.05-1.57-2.04-2.95-2.9-4.41-.19-.32-.07-1.1.2-1.37,2.25-2.16,4.54-4.29,6.88-6.35.86-.76,4.88-.57,5.79.12,1.04.78,1.17,1.76.18,2.72-2.32,2.23-4.71,4.39-7.09,6.56-.93.85-1.89,1.68-3.07,2.73Z" style="fill: #60a5fa; stroke-width: 0px;"/>
  <path d="m66.24,12.69c1.17,0,2.12-.98,2.09-2.15-.03-1.17-1-2.17-2.1-2.17-1.17,0-2.07.94-2.07,2.15,0,1.18.95,2.16,2.08,2.16Z" style="fill: #60a5fa; stroke-width: 0px;"/>
  <path d="m50.24,16.31c-.01-1.25-.9-2.09-2.15-2.05-1.07.04-1.84.93-1.8,2.06.04,1.13,1,2.06,2.07,2.02,1.02-.04,1.89-.98,1.88-2.03Z" style="fill: #60a5fa; stroke-width: 0px;"/>
  <path d="m43.75,6.15c1.12-.02,1.88-.81,1.89-1.94,0-1.17-.81-1.97-2.03-1.97-1.15,0-1.94.79-1.89,1.9.05,1.15.93,2.03,2.03,2.01Z" style="fill: #60a5fa; stroke-width: 0px;"/>
  <path d="m53.42,3.49c1.07-.13,1.73-.75,1.68-1.8-.05-1.03-.72-1.72-1.8-1.69-1.02.03-1.62.71-1.59,1.7.03,1.01.59,1.71,1.71,1.79Z" style="fill: #60a5fa; stroke-width: 0px;"/>
  <path d="m67.24,12.69c-1.14,0-2.08-.99-2.08-2.16,0-1.22.9-2.15,2.07-2.15,1.1,0,2.07,1,2.1,2.17.03,1.17-.92,2.16-2.09,2.15Z" style="fill: #60a5fa; stroke-width: 0px;"/>
  <path d="m51.24,16.31c0,1.06-.86,1.99-1.88,2.03-1.07.04-2.03-.89-2.07-2.02-.04-1.13.73-2.02,1.8-2.06,1.25-.05,2.14.8,2.15,2.05Z" style="fill: #60a5fa; stroke-width: 0px;"/>
  <path d="m44.75,6.15c-1.1.02-1.99-.86-2.03-2.01-.05-1.11.75-1.91,1.89-1.9,1.22,0,2.04.8,2.03,1.97,0,1.14-.78,1.93-1.89,1.94Z" style="fill: #60a5fa; stroke-width: 0px;"/>
  <path d="m54.42,3.49c-1.12-.08-1.67-.78-1.71-1.79-.03-.99.56-1.67,1.59-1.7,1.08-.03,1.76.66,1.8,1.69.05,1.05-.61,1.67-1.68,1.8Z" style="fill: #60a5fa; stroke-width: 0px;"/>
</svg>