<?xml version="1.0" encoding="UTF-8"?>
<svg id="Layer_1" xmlns="http://www.w3.org/2000/svg" viewBox="0 0 645.4 627.18">
  <path d="M102.23,553.64c-3.37.69-6.74,1.63-10.17,2.04-24.68,2.93-44.97-6.45-61.66-23.66C6.7,507.59-2.78,477.75.7,444.11c3.98-38.41,24.31-65.7,59.19-81.7,17.98-8.25,37.29-10.03,56.85-7.16,12.89,1.89,25.65,3.29,37.61-3.51,6.5-3.69,13.09-7.35,19.14-11.72,46.08-33.29,86.83-72.5,125.73-113.73,14.42-15.28,27.88-31.39,39.59-48.88,5.91-8.83,11.29-17.97,13.26-28.69,1.41-7.66-.31-14.91-2.5-22.11-5.97-19.58-7.49-39.45-1.27-59.06,11.19-35.27,35.07-57.43,71.39-65.44,37.99-8.38,76,8.78,95.03,42.56,4.83,8.58,7.7,17.82,8.8,27.11,7.66-1.5,15.13-3.56,22.73-4.34,27.66-2.85,51.09,6.66,69.7,26.77,27.53,29.76,34.89,65.12,25.67,104.07-5.9,24.92-18.54,45.91-40.24,60.22-22.2,14.64-46.58,17.51-72.19,10.88-4.95-1.28-9.84-2.87-14.84-3.88-10.71-2.17-20.23,1.71-29.3,6.7-16.37,9.01-31.19,20.28-45.5,32.23-25,20.87-47.71,44.1-69.28,68.44-22.48,25.36-43.58,51.82-61.89,80.39-4.5,7.03-8.4,14.46-12.36,21.82-6.09,11.33-7.25,23.04-3.09,35.44,6.04,17.99,7.14,36.31.8,54.44-11.26,32.18-33.93,52.11-67,59.7-44.99,10.32-89.43-11.57-113.31-48.91-2.22-3.47-4.3-7.04-6.16-10.71-1.85-3.65-3.34-7.48-5.05-11.37ZM553.04,106.59c6.91-.95,13.54-.08,19.63,3.07,21.62,11.18,32.24,29.51,33.52,53.39,1.8,33.77-18.75,60.74-51.49,66.64-10.08,1.82-20.65,1.16-31,1.22-15.51.08-30.2,3.41-44.18,10.04-19.2,9.09-35.68,21.99-50.82,36.68-6.64,6.44-12.81,13.37-19.19,20.08.23.24.45.48.68.71.94-.73,1.88-1.48,2.83-2.2,17.45-13.35,34.54-27.21,52.44-39.92,20.79-14.77,43.8-22.2,69.89-18.9,17.85,2.26,34.8-1.74,50.19-11.41,3.03-1.91,5.97-3.96,8.95-5.95-15.42,20.42-37.03,25.97-61.15,25.7,3.67.88,7.33,1.61,11.01,2.19,27.7,4.39,49.06-5.65,64.02-28.98,11.71-18.27,15.09-38.7,12.94-60.03-2.08-20.6-10.02-38.55-25.43-52.82-19.34-17.91-44.06-22.21-67.19-10.73-7.15,3.55-13.35,9.13-19.74,14.1-5.95,4.63-11.85,9.19-19.41,10.9-13.18,2.99-23.87-5.08-24.44-18.59-.13-2.99.2-5.99.3-8.98.16-4.74.61-9.5.39-14.22-.7-15.12-10.87-27.42-25.59-30.11-5.6-1.02-11.54-.17-16.35-.17,14.37-12.9,48.27-15.59,71.63,18.84-.09-.58-.08-.94-.19-1.25-9.29-27.63-34.67-47.48-68.58-42.13-27.73,4.37-52.01,27-57.69,54.56-2.93,14.22-1.34,28.16,2.59,41.85,5.73,19.94,3.64,39.07-6.49,56.85-6.71,11.77-14.53,23.04-22.92,33.7-23.25,29.51-49.86,55.96-77.01,81.84-23.71,22.6-48.11,44.39-74.86,63.42-20.47,14.56-42.68,22.22-68.22,19.79-9.97-.95-20.32-.62-30.22.92-27.59,4.3-49.17,18.15-61.38,43.83-10.73,22.55-9.78,45.83-.6,68.75,6.99,17.44,18.65,30.94,35.94,38.94,4.61,2.13,9.67,3.27,14.52,4.87-33.46-16.55-49.47-43.12-48.48-80.15,2.29,14.68,7.85,27.78,18.87,38.1,10.97,10.27,23.71,16.41,38.92,16.64-52.36-16.59-61.29-67.92-39.05-94.92-4.7,11.27-6.07,22.02-2.63,32.88,3.6,11.36,11.39,18.6,22.9,21.72-9.43-7.8-16.8-16.91-17.55-29.64-.78-13.22,5.93-26.99,13.6-30.3-1.42,2.72-3.58,5.74-4.64,9.11-5.34,16.97,7.19,33.32,25.92,34.18,8.31.38,15.94-2.46,23.75-4.63,4.76-1.32,9.75-2.69,14.62-2.63,11.15.13,16.59,10.85,10.57,20.2-1.6,2.49-3.73,4.69-5.85,6.78-8.4,8.28-15.72,17.33-18.02,29.2-5.35,27.62,4.01,50.16,25.59,67.29,20.13,15.98,43.74,21.98,69.24,20.06,12.94-.97,24.86-5.32,35.22-13.38,7.58-5.9,13.79-12.91,17.25-22.09-1.97,19.92-26.23,45.42-67.25,46.52,1.33.32,1.77.51,2.21.51,8.84.02,17.81,1.01,26.48-.18,21.62-2.95,37.93-14.19,47.24-34.26,7.23-15.56,6.28-31.61,1.03-47.53-5.14-15.61-3.84-30.88,2.52-45.69,3.75-8.72,8.54-17,12.86-25.48-3.67,4.64-7.35,9.35-10.71,14.27-7.74,11.34-14.33,23.33-15.78,37.22-.99,9.42-.78,18.96-1.13,28.45-.93,25.21-17.66,45.92-42.09,52.12-29.76,7.55-64.25-4.69-82.51-29.28-9.66-13.02-13.32-27.48-10.49-43.49.4-2.25,1.07-4.45,1.62-6.67-3.47,34.9,31.99,53.07,54.2,46.03-19.07-.99-34.74-8.41-42.47-27.2-4.7-11.42-2.87-22.73,5.24-33.41-3.29,15.91,1.81,28.71,14.02,36.34,17.16,10.72,39.08,1.61,42.24-17.73.7-4.28.57-8.73.48-13.09-.27-13.38,2.72-25.92,10.42-36.89,7.1-10.1,14.29-20.27,22.56-29.4,38.83-42.88,77.73-85.69,117.22-127.96,23.79-25.46,48.41-50.17,73.19-74.67,14.52-14.36,30.72-26.73,49.9-34.61,13.69-5.62,28.17-7.36,42.66-9.23,10.69-1.37,20.75-4.49,29.23-11.47,6.17-5.08,10.65-11.13,11.31-19.51.85-10.93-5.88-19.2-16.71-19.78-3.22-.17-6.49.61-10.33,1.02,7.14-6.94,15.29-9.73,24.53-9.04,12.32.93,20.59,8.75,28.2,17.43,2.02,2.3,3.74,4.85,5.6,7.29-5.37-17.06-15.66-29.53-33.02-35.53ZM462.29,218.82c-.82.48-1.67.93-2.46,1.45-24.13,15.98-46.45,34.21-67.25,54.3-27.09,26.16-52.29,54.04-76.08,83.2-21.1,25.87-41.06,52.56-57.58,81.67-1.92,3.38-3.75,6.81-5.62,10.22.31.22.63.44.94.65,62.97-82.92,130.61-161.62,208.06-231.5Z"/>
  <path d="M553.04,106.59c17.35,6,27.65,18.47,33.02,35.53-1.86-2.44-3.59-4.99-5.6-7.29-7.61-8.68-15.88-16.51-28.2-17.43-9.24-.69-17.39,2.1-24.53,9.04,3.84-.41,7.11-1.19,10.33-1.02,10.83.58,17.56,8.84,16.71,19.78-.65,8.38-5.14,14.43-11.31,19.51-8.48,6.99-18.54,10.1-29.23,11.47-14.49,1.86-28.97,3.6-42.66,9.23-19.18,7.88-35.38,20.25-49.9,34.61-24.78,24.5-49.4,49.21-73.19,74.67-39.49,42.27-78.4,85.08-117.22,127.96-8.27,9.13-15.46,19.29-22.56,29.4-7.7,10.96-10.69,23.51-10.42,36.89.09,4.36.22,8.81-.48,13.09-3.16,19.34-25.08,28.45-42.24,17.73-12.21-7.63-17.31-20.43-14.02-36.34-8.1,10.69-9.93,22-5.24,33.41,7.74,18.8,23.4,26.22,42.47,27.2-22.2,7.05-57.66-11.12-54.2-46.03-.55,2.22-1.22,4.42-1.62,6.67-2.83,16.01.82,30.48,10.49,43.49,18.25,24.58,52.74,36.83,82.51,29.28,24.43-6.2,41.15-26.9,42.09-52.12.35-9.49.14-19.03,1.13-28.45,1.46-13.89,8.04-25.88,15.78-37.22,3.36-4.92,7.04-9.63,10.71-14.27-4.32,8.48-9.12,16.75-12.86,25.48-6.36,14.81-7.67,30.09-2.52,45.69,5.25,15.93,6.19,31.97-1.03,47.53-9.32,20.07-25.62,31.31-47.24,34.26-8.68,1.18-17.65.2-26.48.18-.44,0-.87-.19-2.21-.51,41.02-1.1,65.28-26.6,67.25-46.52-3.46,9.18-9.67,16.19-17.25,22.09-10.35,8.07-22.28,12.41-35.22,13.38-25.5,1.92-49.11-4.08-69.24-20.06-21.58-17.14-30.95-39.68-25.59-67.29,2.3-11.87,9.62-20.93,18.02-29.2,2.12-2.09,4.25-4.29,5.85-6.78,6.03-9.34.58-20.06-10.57-20.2-4.87-.06-9.85,1.31-14.62,2.63-7.81,2.17-15.44,5.01-23.75,4.63-18.73-.86-31.27-17.2-25.92-34.18,1.06-3.37,3.22-6.38,4.64-9.11-7.68,3.31-14.39,17.08-13.6,30.3.76,12.73,8.13,21.85,17.55,29.64-11.51-3.13-19.3-10.37-22.9-21.72-3.44-10.86-2.07-21.61,2.63-32.88-22.25,26.99-13.31,78.33,39.05,94.92-15.21-.23-27.96-6.37-38.92-16.64-11.03-10.32-16.58-23.42-18.87-38.1-.99,37.03,15.02,63.59,48.48,80.15-4.85-1.6-9.92-2.74-14.52-4.87-17.28-8-28.95-21.5-35.94-38.94-9.18-22.91-10.13-46.19.6-68.75,12.22-25.68,33.8-39.54,61.38-43.83,9.9-1.54,20.25-1.87,30.22-.92,25.54,2.43,47.75-5.23,68.22-19.79,26.75-19.03,51.15-40.82,74.86-63.42,27.15-25.89,53.75-52.33,77.01-81.84,8.39-10.65,16.21-21.93,22.92-33.7,10.14-17.78,12.23-36.91,6.49-56.85-3.93-13.69-5.53-27.63-2.59-41.85,5.68-27.55,29.96-50.18,57.69-54.56,33.91-5.35,59.29,14.5,68.58,42.13.11.32.11.67.19,1.25-23.36-34.43-57.26-31.74-71.63-18.84,4.81,0,10.75-.86,16.35.17,14.72,2.69,24.89,14.99,25.59,30.11.22,4.72-.23,9.48-.39,14.22-.1,3-.43,6-.3,8.98.57,13.51,11.26,21.58,24.44,18.59,7.57-1.72,13.46-6.27,19.41-10.9,6.39-4.97,12.58-10.55,19.74-14.1,23.13-11.47,47.85-7.17,67.19,10.73,15.41,14.27,23.35,32.22,25.43,52.82,2.15,21.33-1.22,41.75-12.94,60.03-14.96,23.34-36.32,33.38-64.02,28.98-3.68-.58-7.34-1.31-11.01-2.19,24.11.28,45.73-5.28,61.15-25.7-2.98,1.99-5.92,4.05-8.95,5.95-15.39,9.67-32.34,13.67-50.19,11.41-26.09-3.3-49.1,4.13-69.89,18.9-17.9,12.72-34.99,26.57-52.44,39.92-.95.73-1.89,1.47-2.83,2.2-.23-.24-.45-.48-.68-.71,6.38-6.71,12.56-13.63,19.19-20.08,15.14-14.69,31.62-27.59,50.82-36.68,13.99-6.62,28.67-9.96,44.18-10.04,10.35-.05,20.92.6,31-1.22,32.74-5.9,53.3-32.87,51.49-66.64-1.28-23.88-11.9-42.21-33.52-53.39-6.09-3.15-12.71-4.02-19.63-3.07ZM297.86,280.96c-.17-.16-.34-.32-.5-.47-.84.65-1.72,1.24-2.5,1.95-12.65,11.34-25.28,22.7-37.93,34.03-20.68,18.52-41.98,36.27-65.95,50.47-17.31,10.25-35.7,17.33-56.22,17.25-8.62-.03-17.25-.36-25.86-.15-7.54.19-14.99,1.34-20.98,4.17,9.22,1.98,19.09,3.89,28.86,6.23,12.84,3.08,25.68,3.54,38.63,1,21.09-4.13,39.29-14.32,56-27.34,29.5-22.99,55.1-49.97,79.3-78.34,2.46-2.88,4.77-5.87,7.15-8.81ZM410.21,42.34c-14.57,8.5-23.06,21.24-26.21,37.68-2.51,13.09-1.17,26.15.44,39.17,2.64,21.38-.45,41.82-9.67,61.28-4.03,8.5-8.46,16.82-12.56,24.95-.04.02.31-.12.53-.37,14.02-15.56,26.54-32.15,35.29-51.34,6.82-14.95,9.96-30.41,7.98-46.97-1.24-10.36-1.42-20.86-1.63-31.31-.07-3.49,1.25-7.01,2.04-11.02-8.74,11.32-11.84,24.23-14.37,37.36-4.37-23.06,1.77-42.79,18.17-59.42ZM213.75,427.95c1.18-1.27,2.38-2.53,3.55-3.82,30.14-33.2,60.16-66.52,90.46-99.57,33.94-37.01,68.21-73.72,102.2-110.68,7.28-7.91,13.98-16.36,20.94-24.56-26.05,18.07-196.15,200.49-217.16,238.63Z" style="fill:#d8a85e ;"/>
  <path d="M462.29,218.82c-77.45,69.88-145.09,148.58-208.06,231.5-.31-.22-.63-.44-.94-.65,1.87-3.41,3.7-6.84,5.62-10.22,16.52-29.11,36.49-55.8,57.58-81.67,23.79-29.17,48.99-57.05,76.08-83.2,20.81-20.09,43.13-38.32,67.25-54.3.79-.53,1.64-.97,2.46-1.45Z" style="fill: #e75480;"/>
  <path d="M297.86,280.96c-2.38,2.94-4.7,5.94-7.15,8.81-24.2,28.37-49.8,55.35-79.3,78.34-16.71,13.02-34.91,23.21-56,27.34-12.95,2.53-25.79,2.07-38.63-1-9.77-2.34-19.64-4.26-28.86-6.23,5.99-2.84,13.43-3.98,20.98-4.17,8.61-.22,17.24.11,25.86.15,20.52.08,38.91-7,56.22-17.25,23.97-14.2,45.26-31.95,65.95-50.47,12.66-11.33,25.28-22.69,37.93-34.03.79-.7,1.67-1.3,2.5-1.95.17.16.34.32.5.47Z"/>
  <path d="M410.21,42.34c-16.39,16.63-22.54,36.36-18.17,59.42,2.54-13.13,5.63-26.04,14.37-37.36-.78,4.01-2.11,7.53-2.04,11.02.21,10.45.39,20.95,1.63,31.31,1.98,16.56-1.16,32.02-7.98,46.97-8.75,19.19-21.27,35.78-35.29,51.34-.23.25-.57.4-.53.37,4.11-8.12,8.53-16.44,12.56-24.95,9.22-19.45,12.31-39.89,9.67-61.28-1.61-13.02-2.95-26.08-.44-39.17,3.15-16.45,11.64-29.18,26.21-37.68Z"/>
  <path d="M213.75,427.95c21-38.14,191.1-220.55,217.16-238.63-6.97,8.2-13.66,16.64-20.94,24.56-33.99,36.96-68.26,73.67-102.2,110.68-30.31,33.05-60.32,66.37-90.46,99.57-1.17,1.29-2.37,2.55-3.55,3.82Z"/>
</svg>