<?xml version="1.0" encoding="UTF-8"?>
<svg id="Layer_1" data-name="Layer 1" xmlns="http://www.w3.org/2000/svg" viewBox="0 0 300 300">
  <path d="m64.68,244.57v44.04c0,6.02-.03,5.77-7.77,6.12-4.82.22-6.37-1.38-6.29-6.25.26-16.82.19-33.66,0-50.48-.03-2.22-1.02-4.88-2.47-6.54-7.58-8.64-11.5-18.48-11.33-30.07.18-12.43.04-24.86.04-37.55,18.8,10.38,25.87,10.35,40.73-.46v9.07c0,7.5.37,15.02-.14,22.48-.38,5.47,1.65,8.64,5.93,11.88,6.02,4.57,12.19,7.04,19.71,6.03,1.77-.24,3.6-.04,5.93-.04v7.15c.02,19.01,13.65,32.91,32.51,33.02,13.12.08,26.24.05,39.36,0,18.29-.09,31.75-13.61,31.86-31.9.02-2.48,0-4.96,0-8.03,8.7.47,16.07,3.5,22.48,8.63,9.46,7.57,14.66,17.6,14.92,29.79.27,12.66-.07,25.33.18,37.98.09,4.39-1.76,5.33-5.65,5.32-29.89-.1-59.78-.05-89.67-.05-19.1,0-38.19-.13-57.29.08-4.61.05-6.19-1.44-5.99-6.03.31-6.82.19-13.66-.02-20.49-.05-1.6-.78-3.73-1.95-4.65-7.93-6.26-16.07-12.25-25.08-19.04h0Z" style="fill: #60a5fa; stroke-width: 0px;"/>
  <path d="m189,212.21h12.34c4.17,20.87-9.24,30.88-22.88,29.99-11.57-.76-23.23-.18-34.85-.15-15.49.05-23.73-8.09-23.75-23.56v-5.44h11.37c0-7.24.05-14-.07-20.75,0-.79-.85-1.81-1.59-2.31-11.46-7.82-18.88-18.47-22.19-31.82-8.31-.99-10.33-2.7-10.5-8.68-.35-12.54.55-14.01,9.75-15.57,3.01-15.32,10.2-28.29,23.3-37.38,9.27-6.44,19.73-9.63,30.98-9.21,21.94.83,45.28,16.03,51.24,46.76h5.93v-10.08c0-19.82,0-39.64.04-59.46,0-5.5,2.53-8.61,6.77-8.64,4.22-.03,7,3.25,7,8.54,0,39.64.08,79.29-.08,118.93-.07,16.79-10.58,26.82-27.34,26.76-5.14-.02-10.28,0-15.41,0-.02.69-.03,1.37-.05,2.06h0Zm-29.26-90.02v.02h-11.45c-3.82,0-7.64-.1-11.45.04-10.17.36-18.81,6.16-20.11,15.35-1.14,8.1-.96,16.64.23,24.75,1.18,8.04,9.25,14.02,16.96,14.62,8.39.65,14.09-3.13,18-11.98,1.01-2.28,1.77-4.69,2.99-6.85,2.39-4.21,6.57-4.29,8.96-.08,1.8,3.16,3.01,6.66,4.68,9.91,3.31,6.46,8.82,9.28,15.9,9.04,9.82-.33,17.85-8.68,18.56-19.39.29-4.31.15-8.66.13-12.99-.06-13.45-8.64-22.24-21.99-22.44-7.14-.11-14.27-.02-21.41-.02v.02Zm17.46,80.69c.12-9.05-7.49-16.91-16.61-17.15-9.71-.25-17.81,7.4-17.87,16.88-.06,9.29,7.77,17.2,17.07,17.24,9.34.04,17.29-7.71,17.41-16.98h0Zm12.15-5.95c6.19,0,12.16.2,18.12-.06,5.52-.24,10.06-4.2,10.3-9.71.41-9.61.12-19.25.12-29.05-1.27-.13-2.23-.28-3.19-.3-.97-.02-1.95.08-2.81.12-6.88,17.96-10.17,23.36-19.58,30.07-3.25,2.32-4.28,4.74-2.96,8.92h0Z" style="fill: #60a5fa; stroke-width: 0px;"/>
  <path d="m50.72,81.91c-8.87,5.27-16.68,9.98-24.56,14.53-1.45.84-3.24,1.09-4.88,1.62-.05-1.73-.61-3.64-.06-5.15,6.93-18.86,13.89-37.72,21.12-56.46,3.83-9.92,8.21-19.63,12.38-29.41.7-1.64,1.58-3.19,2.66-5.37,1.12,1.32,2.08,2.02,2.46,2.96,10.49,25.87,20.95,51.75,31.31,77.68,1.41,3.54,2.36,7.28,3.26,10.99.36,1.49-.02,3.15-.07,4.73-1.51-.36-3.19-.39-4.49-1.13-8.17-4.67-16.25-9.49-25.16-14.73,0,12.63-.12,24.38.17,36.13.03,1.34,2.24,2.89,3.74,3.89,7.62,5.11,11.23,13.86,9.13,22.54-2.07,8.53-9.45,14.97-18.37,16.01-8.36.98-16.89-3.82-20.83-11.71-4.83-9.68-1.46-21.6,8.13-26.79,3.37-1.82,4.21-3.82,4.13-7.36-.22-10.61-.08-21.24-.08-32.98h.01Z" style="fill: #60a5fa; stroke-width: 0px;"/>
  <path d="m159.77,133.2c7.13,0,14.25-.07,21.38,0,7.61.09,11.16,3.77,11.2,11.44.02,3.82.15,7.65,0,11.47-.21,5.19-3.39,9.19-7.68,9.68-4.98.57-6.95-2.75-8.47-6.76-1.06-2.78-2.19-5.61-3.81-8.08-6.47-9.8-20.65-9.31-26.44.87-1.47,2.58-2.57,5.39-3.65,8.17-1.38,3.55-3.42,6.24-7.6,5.82-4.59-.46-7.38-3.59-7.8-7.82-.56-5.59-.52-11.32,0-16.91.46-4.92,4.67-7.78,10.52-7.86,7.46-.11,14.91-.03,22.37-.03h-.02Z" style="fill: #24558c; stroke-width: 0px;"/>
</svg>